<svg xmlns="http://www.w3.org/2000/svg" width="120" height="60" viewBox="0 0 120 60"><rect width="100%" height="100%" fill="#e0e0e0"/><path fill="#333333" d="M32.705 24.67h1.52v10.84h-1.78v-7q0-.42.05-.91l-3.28 6.16q-.23.44-.71.44h-.29q-.48 0-.71-.44l-3.31-6.18q.02.24.03.48.02.24.02.45v7h-1.78V24.67h1.76q.09.01.17.04t.15.1q.06.07.12.18l3.25 6.02q.12.24.23.5.11.25.22.52.1-.28.21-.54.12-.25.24-.49l3.21-6.01q.06-.11.12-.18.07-.07.15-.1t.18-.04zm7.71 8.85v-1.29q-.8.03-1.35.13-.55.11-.88.26-.33.16-.47.37t-.14.46q0 .49.28.7.29.2.76.2.57 0 .98-.2.42-.21.82-.63m-3.92-4.04-.33-.59q1.33-1.22 3.2-1.22.67 0 1.21.22.53.23.9.62.36.39.55.94.2.55.2 1.2v4.86h-.84q-.27 0-.41-.08t-.22-.32l-.17-.55q-.29.26-.57.46t-.58.33q-.3.14-.64.21t-.75.07q-.49 0-.9-.13t-.71-.39q-.3-.27-.47-.66-.16-.39-.16-.9 0-.3.09-.59.1-.28.32-.55.22-.26.58-.49.35-.23.86-.41.52-.17 1.2-.28t1.56-.13v-.45q0-.77-.33-1.14-.33-.38-.95-.38-.45 0-.75.11-.3.1-.52.24l-.41.23q-.18.11-.41.11-.19 0-.33-.1-.13-.1-.22-.24m9.32-5.11v4.27q.45-.42.99-.68t1.27-.26q.63 0 1.11.21.49.21.82.6.32.39.49.92.17.54.17 1.18v4.9h-1.85v-4.9q0-.7-.32-1.09-.33-.39-.99-.39-.48 0-.9.22t-.79.6v5.56h-1.85V24.37zm10.67 9.15v-1.29q-.8.03-1.35.13-.55.11-.88.26-.33.16-.47.37t-.14.46q0 .49.29.7.29.2.75.2.57 0 .99-.2.41-.21.81-.63m-3.91-4.04-.33-.59q1.32-1.22 3.19-1.22.68 0 1.21.22.53.23.9.62t.56.94.19 1.2v4.86h-.84q-.26 0-.41-.08-.14-.08-.22-.32l-.17-.55q-.29.26-.57.46-.27.2-.57.33-.3.14-.65.21-.34.07-.75.07-.49 0-.9-.13t-.71-.39q-.3-.27-.47-.66-.16-.39-.16-.9 0-.3.1-.59.09-.28.31-.55.23-.26.58-.49t.86-.41q.52-.17 1.2-.28t1.56-.13v-.45q0-.77-.33-1.14-.33-.38-.95-.38-.45 0-.75.11-.29.1-.52.24-.22.13-.41.23-.18.11-.41.11-.19 0-.33-.1-.13-.1-.21-.24m9.77.35h1.26q.57 0 .99-.15.43-.14.7-.39t.41-.6q.13-.34.13-.75 0-.83-.54-1.27-.54-.45-1.66-.45h-1.29zm3.73 1.68 2.72 4h-1.82q-.52 0-.75-.4l-2.28-3.48q-.13-.19-.29-.28-.15-.08-.45-.08h-.86v4.24h-2.02V24.67h3.31q1.1 0 1.89.22.79.23 1.3.65.51.41.75.98.24.58.24 1.27 0 .54-.17 1.03-.16.49-.46.89-.3.39-.75.69t-1.02.48q.2.11.36.26.17.16.3.37m10.74-5.24h-4.82v3.01h3.8v1.55h-3.8v3.07h4.82v1.61h-6.84V24.67h6.84zm3.8 3.56h1.26q.57 0 .99-.15.43-.14.7-.39t.41-.6q.13-.34.13-.75 0-.83-.54-1.27-.54-.45-1.66-.45h-1.29zm3.73 1.68 2.72 4h-1.82q-.52 0-.75-.4l-2.28-3.48q-.13-.19-.29-.28-.15-.08-.45-.08h-.86v4.24h-2.02V24.67h3.31q1.1 0 1.89.22.79.23 1.3.65.51.41.75.98.24.58.24 1.27 0 .54-.17 1.03-.16.49-.46.89-.3.39-.75.69t-1.02.48q.2.11.36.26.17.16.3.37m6.18-.09h3.45l-1.32-3.61q-.1-.24-.21-.57-.1-.33-.21-.71-.09.38-.2.71-.1.34-.2.58zm2.75-6.75 4.26 10.84h-1.56q-.26 0-.43-.13-.16-.13-.25-.33l-.81-2.21h-4.49l-.81 2.21q-.06.18-.23.32t-.43.14h-1.57l4.26-10.84z"/></svg>